<svg width="20" height="32" viewBox="0 0 20 32" fill="none" xmlns="http://www.w3.org/2000/svg">
<path d="M9.79746 2.60662C12.5753 6.13311 14.0582 10.4818 14.0044 14.9442V16.0094L14.9209 16.5671C16.105 17.2839 16.9882 18.3958 17.4094 19.7C17.0396 19.4277 16.6527 19.1787 16.2511 18.9544L13.8071 17.5821L13.3679 20.3517C13.3299 20.5964 13.2789 20.839 13.2152 21.0785H6.367C6.26516 20.7652 6.18243 20.4519 6.10605 20.1261L5.55234 17.6197L3.29931 18.8729C2.92291 19.0834 2.5595 19.3157 2.21098 19.5684C2.64038 18.2793 3.50509 17.1737 4.66131 16.4355L5.53325 15.8778V14.8878C5.54898 10.4436 7.04968 6.12789 9.80382 2.60662H9.79746ZM9.80382 0C9.66099 0.000346872 9.5231 0.0515327 9.41559 0.144116L9.35831 0.194243C5.68826 4.23529 3.65033 9.46075 3.63026 14.8815C2.07287 15.8763 0.920062 17.3782 0.373287 19.1249C-0.173488 20.8715 -0.0794557 22.7517 0.638951 24.437C1.39575 22.7915 2.66088 21.4232 4.25398 20.5271C4.41376 21.2085 4.62653 21.8767 4.89043 22.5259C4.9239 22.6507 4.99809 22.7613 5.10158 22.8405C5.20507 22.9198 5.33214 22.9633 5.46324 22.9646H14.2972C14.4754 22.9646 14.6536 22.7954 14.7427 22.5322C15.0002 21.915 15.1798 21.2689 15.2773 20.6086C16.8734 21.5009 18.1396 22.8703 18.8923 24.5185C19.6541 22.8415 19.772 20.9494 19.2242 19.1933C18.6765 17.4372 17.5002 15.9363 15.9137 14.9693C15.9767 9.5165 13.9495 4.24076 10.2366 0.194243C10.1813 0.133383 10.1137 0.0846409 10.038 0.0511785C9.96235 0.017716 9.8804 0.000279722 9.79746 0L9.80382 0Z" fill="#4EA8DE"/>
<path d="M9.79749 14.3615C9.30865 14.3614 8.83074 14.2189 8.42402 13.9519C8.01731 13.6849 7.69998 13.3054 7.51205 12.8611C7.32411 12.4168 7.27398 11.9277 7.36797 11.4554C7.46196 10.9831 7.69587 10.5487 8.04021 10.2071C8.38455 9.8655 8.8239 9.63188 9.30289 9.53572C9.78188 9.43956 10.2791 9.48516 10.7318 9.66676C11.1845 9.84837 11.5725 10.1579 11.8468 10.5562C12.1211 10.9546 12.2695 11.424 12.2733 11.9052V11.9052C12.2809 12.2171 12.226 12.5274 12.1118 12.8184C11.9975 13.1094 11.8262 13.3754 11.6075 13.6011C11.3888 13.8269 11.1271 14.0081 10.8373 14.1342C10.5474 14.2604 10.2352 14.3291 9.91842 14.3364C9.87837 14.3427 9.83755 14.3427 9.79749 14.3364V14.3615Z" fill="#4EA8DE"/>
<path d="M13.2407 24.5248C13.0814 24.5198 12.9228 24.5461 12.774 24.6023C12.6253 24.6584 12.4894 24.7433 12.3744 24.8518C12.2594 24.9604 12.1675 25.0905 12.1043 25.2345C12.041 25.3784 12.0076 25.5334 12.006 25.6902V29.3871C12.006 29.7095 12.1361 30.0187 12.3676 30.2467C12.5992 30.4746 12.9132 30.6027 13.2407 30.6027C13.5682 30.6027 13.8822 30.4746 14.1138 30.2467C14.3453 30.0187 14.4754 29.7095 14.4754 29.3871V25.7404C14.4805 25.5841 14.4539 25.4284 14.3973 25.2824C14.3406 25.1363 14.255 25.0028 14.1454 24.8897C14.0358 24.7765 13.9044 24.686 13.759 24.6233C13.6135 24.5607 13.4568 24.5272 13.298 24.5248H13.2407Z" fill="#5E60CE"/>
<path d="M6.36702 24.5248C6.20506 24.5163 6.04304 24.5401 5.89059 24.5945C5.73814 24.649 5.59838 24.7331 5.47962 24.8418C5.36086 24.9506 5.26553 25.0817 5.1993 25.2275C5.13308 25.3732 5.0973 25.5306 5.09412 25.6902V29.3871C5.09412 29.7095 5.2242 30.0187 5.45575 30.2467C5.68731 30.4746 6.00136 30.6027 6.32883 30.6027C6.65629 30.6027 6.97035 30.4746 7.2019 30.2467C7.43346 30.0187 7.56354 29.7095 7.56354 29.3871V25.7404C7.56863 25.5841 7.54207 25.4284 7.48541 25.2823C7.42876 25.1363 7.34314 25.0028 7.23355 24.8897C7.12396 24.7765 6.99258 24.686 6.84709 24.6233C6.7016 24.5607 6.54489 24.5272 6.38611 24.5248H6.36702Z" fill="#5E60CE"/>
<path d="M9.70834 24.5248C9.54953 24.5214 9.39161 24.549 9.2436 24.6057C9.0956 24.6625 8.9604 24.7474 8.84574 24.8557C8.73108 24.9639 8.6392 25.0933 8.57535 25.2365C8.51151 25.3797 8.47694 25.5339 8.47363 25.6902V30.7844C8.47363 31.1068 8.60372 31.416 8.83527 31.644C9.06682 31.8719 9.38088 32 9.70834 32C10.0358 32 10.3499 31.8719 10.5814 31.644C10.813 31.416 10.9431 31.1068 10.9431 30.7844V25.7717C10.9481 25.6154 10.9216 25.4597 10.8649 25.3137C10.8083 25.1676 10.7227 25.0341 10.6131 24.921C10.5035 24.8079 10.3721 24.7173 10.2266 24.6547C10.0811 24.592 9.92441 24.5585 9.76563 24.5561L9.70834 24.5248Z" fill="#5E60CE"/>
</svg>
